<?xml version="1.0" encoding="UTF-8"?>
<svg width="90px" height="82px" viewBox="0 0 90 82" version="1.1" xmlns="http://www.w3.org/2000/svg" xmlns:xlink="http://www.w3.org/1999/xlink">
    <!-- Generator: Sketch 48.2 (47327) - http://www.bohemiancoding.com/sketch -->
    <title>icon_hammer</title>
    <desc>Created with Sketch.</desc>
    <defs></defs>
    <g id="Page-1" stroke="none" stroke-width="1" fill="none" fill-rule="evenodd">
        <g id="icon_hammer" fill="#000000" fill-rule="nonzero">
            <path d="M88.728,70.368 C86.82,68.862 73.476,57.289 69.69,52.975 C69.07,52.268 68.255,51.412 67.3,50.46 C67.297,50.457 67.295,50.453 67.292,50.45 C67.289,50.447 67.285,50.445 67.282,50.442 C66.406,49.569 65.413,48.617 64.344,47.627 C64.342,47.625 64.341,47.623 64.34,47.622 C64.336,47.618 64.332,47.616 64.328,47.613 C63.375,46.73 62.363,45.818 61.321,44.906 C61.314,44.898 61.309,44.889 61.301,44.882 C61.261,44.842 61.217,44.811 61.174,44.778 C56.424,40.631 51.086,36.514 47.95,35.217 C47.594,35.07 47.196,35.111 46.878,35.31 L28.779,17.21 L29.506,16.483 C29.755,16.234 29.879,15.886 29.844,15.535 C29.809,15.184 29.618,14.867 29.324,14.672 C27.66,13.567 24.51,10.741 25.396,9.063 C26.169,7.598 28.064,6.855 31.028,6.855 C35.546,6.855 40.75,8.638 40.803,8.656 C41.155,8.778 41.544,8.726 41.852,8.515 C42.159,8.304 42.349,7.961 42.363,7.588 L42.451,5.18 C42.467,4.748 42.245,4.343 41.873,4.124 C38.152,1.933 34.086,0.823 29.789,0.823 C20.424,0.823 12.658,6.101 10.559,11.204 C8.246,16.83 5.544,17.061 5.166,17.066 C4.801,17.012 4.492,17.143 4.229,17.406 L0.763,20.872 C0.304,21.331 0.304,22.075 0.763,22.534 L7.578,29.349 C7.808,29.579 8.108,29.693 8.409,29.693 C8.71,29.693 9.011,29.578 9.24,29.349 L12.177,26.412 C12.397,26.192 12.521,25.893 12.521,25.581 C12.521,25.31 12.428,25.049 12.259,24.841 C12.15,24.504 12.157,23.247 12.81,21.993 C13.251,21.146 14.118,20.069 15.747,19.743 C16.01,19.69 16.268,19.664 16.513,19.664 C19.24,19.664 20.376,23.137 20.386,23.168 C20.508,23.561 20.827,23.862 21.227,23.961 C21.627,24.06 22.049,23.942 22.34,23.651 L23.829,22.162 L41.913,40.246 C41.567,40.669 41.551,41.28 41.897,41.717 C42.184,42.079 48.972,50.639 53.559,55.226 C55.604,57.271 58.115,59.33 60.773,61.51 C64.088,64.229 67.517,67.041 70.043,69.871 C71.196,71.162 72.366,72.602 73.497,73.994 C77.121,78.455 79.451,81.189 81.578,81.189 C82.128,81.189 82.643,81.003 83.066,80.651 C84.94,79.092 85.937,77.864 86.214,77.501 C87.125,76.654 89.659,74.108 89.583,72.067 C89.557,71.376 89.261,70.789 88.728,70.368 Z M21.87,20.793 C21.005,19.286 19.332,17.312 16.512,17.312 C16.112,17.312 15.7,17.354 15.285,17.437 C12.816,17.931 10.954,19.685 10.178,22.249 C9.88,23.232 9.752,24.393 9.958,25.305 L8.408,26.855 L3.255,21.702 L5.563,19.394 C6.965,19.249 10.218,18.213 12.733,12.096 C14.498,7.804 21.52,3.172 29.788,3.172 C33.429,3.172 36.886,4.057 40.075,5.805 L40.069,5.965 C38.082,5.393 34.441,4.502 31.028,4.502 C27.124,4.502 24.529,5.667 23.317,7.964 C21.684,11.058 24.976,14.274 26.876,15.787 L26.287,16.376 C26.287,16.376 26.286,16.377 26.285,16.377 C26.284,16.377 26.284,16.378 26.284,16.379 L22.997,19.666 C22.997,19.666 22.997,19.666 22.996,19.667 C22.995,19.668 22.996,19.667 22.995,19.668 L21.87,20.793 Z M27.116,18.871 L45.192,36.947 L43.566,38.573 L25.49,20.497 L27.116,18.871 Z M84.542,75.842 C84.483,75.895 84.428,75.958 84.382,76.022 C84.373,76.034 83.504,77.223 81.567,78.836 C81.439,78.831 80.826,78.711 79.278,77.131 C78.092,75.921 76.745,74.264 75.32,72.509 C74.172,71.096 72.985,69.634 71.795,68.302 C69.146,65.335 65.647,62.465 62.262,59.689 C59.65,57.547 57.182,55.523 55.219,53.56 C51.54,49.881 46.228,43.356 44.391,41.071 L47.753,37.709 C50.498,39.081 54.746,42.343 58.742,45.776 L56.804,47.714 C56.345,48.173 56.345,48.917 56.804,49.376 C57.033,49.606 57.334,49.72 57.635,49.72 C57.936,49.72 58.237,49.605 58.466,49.376 L60.517,47.325 C60.956,47.714 61.387,48.102 61.81,48.487 L59.694,50.604 C59.235,51.063 59.235,51.807 59.694,52.266 C59.923,52.496 60.224,52.61 60.525,52.61 C60.826,52.61 61.127,52.495 61.356,52.266 L63.537,50.085 C63.972,50.495 64.391,50.896 64.792,51.286 L62.584,53.493 C62.125,53.952 62.125,54.696 62.583,55.155 C62.813,55.385 63.114,55.5 63.414,55.5 C63.715,55.5 64.015,55.385 64.245,55.156 L66.455,52.948 C66.896,53.402 67.295,53.826 67.644,54.213 L65.473,56.384 C65.014,56.843 65.014,57.587 65.473,58.046 C65.702,58.276 66.003,58.39 66.304,58.39 C66.605,58.39 66.906,58.275 67.135,58.046 L69.241,55.94 C69.618,56.327 70.028,56.739 70.466,57.17 L68.363,59.273 C67.904,59.732 67.904,60.476 68.363,60.935 C68.592,61.165 68.893,61.279 69.194,61.279 C69.495,61.279 69.796,61.164 70.025,60.935 L72.157,58.803 C77.77,64.134 85.926,71.139 87.236,72.185 C87.256,72.782 85.978,74.523 84.542,75.842 Z" id="Shape"></path>
        </g>
    </g>
</svg>